# xmcd
#
# Track frame offsets: 
#        182
#        13570
#        26372
#        39007
#        50150
#        61762
#        72815
#        85697
#        97960
#        108362
#        118782
#        131770
#        143482
#        155867
#        167310
#        180327
#        191935
#        205800
#        217782
#        231780
#
# Disc length: 3274 seconds
#
# Revision: 3
# Processed by: cddbd v1.5.1PL0 Copyright (c) Steve Scherf et al.
# Submitted via: ExactAudioCopy v0.90b4
#
DISCID=000cc814
DTITLE=Ray Charles - Legends
DYEAR=1993
DGENRE=Easy Listening
TTITLE0=Alone In The City
TTITLE1=Can Anyone Ask For More
TTITLE2=Rocking Chair Blues
TTITLE3=Let's Have A Ball
TTITLE4=How Long, How Long Blues
TTITLE5=A Sentitmental Blues
TTITLE6=You Always Miss The Water
TTITLE7=I've Had My Fun
TTITLE8=Sitting On The Top Of The World
TTITLE9=Ain't That Fine
TTITLE10=Don Put All Your Dreams In One Basket
TTITLE11=Ray Charles Blues
TTITLE12=Honey Honey
TTITLE13=Sue's On The Ball
TTITLE14=Baby Won't You Please Come Home
TTITLE15=If I Give You My Love
TTITLE16=This Love Of Mine
TTITLE17=Can't You See My Darling
TTITLE18=Someday
TTITLE19=I'm Going Down To The River
EXTD=
EXTT0=
EXTT1=
EXTT2=
EXTT3=
EXTT4=
EXTT5=
EXTT6=
EXTT7=
EXTT8=
EXTT9=
EXTT10=
EXTT11=
EXTT12=
EXTT13=
EXTT14=
EXTT15=
EXTT16=
EXTT17=
EXTT18=
EXTT19=
PLAYORDER=
